<?xml version="1.0" encoding="utf-8" standalone="no"?>
<!DOCTYPE svg PUBLIC "-//W3C//DTD SVG 1.1//EN"
  "http://www.w3.org/Graphics/SVG/1.1/DTD/svg11.dtd">
<svg xmlns:xlink="http://www.w3.org/1999/xlink" width="789.001875pt" height="489.864094pt" viewBox="0 0 789.001875 489.864094" xmlns="http://www.w3.org/2000/svg" version="1.1">
 <metadata>
  <rdf:RDF xmlns:dc="http://purl.org/dc/elements/1.1/" xmlns:cc="http://creativecommons.org/ns#" xmlns:rdf="http://www.w3.org/1999/02/22-rdf-syntax-ns#">
   <cc:Work>
    <dc:type rdf:resource="http://purl.org/dc/dcmitype/StillImage"/>
    <dc:date>2026-06-29T11:08:51.527107</dc:date>
    <dc:format>image/svg+xml</dc:format>
    <dc:creator>
     <cc:Agent>
      <dc:title>Matplotlib v3.10.8, https://matplotlib.org/</dc:title>
     </cc:Agent>
    </dc:creator>
   </cc:Work>
  </rdf:RDF>
 </metadata>
 <defs>
  <style type="text/css">*{stroke-linejoin: round; stroke-linecap: butt}</style>
 </defs>
 <g id="figure_1">
  <g id="patch_1">
   <path d="M 0 489.864094 
L 789.001875 489.864094 
L 789.001875 -0 
L 0 -0 
z
" style="fill: #ffffff"/>
  </g>
  <g id="axes_1">
   <g id="patch_2">
    <path d="M 93.425205 101.961037 
Q 94.264264 134.180978 81.847659 162.097694 
" clip-path="url(#p4d773c514f)" style="fill: none; stroke: #2e9b8a; stroke-width: 1.5; stroke-linecap: round"/>
    <path d="M 85.645912 158.97147 
L 81.847659 162.097694 
L 81.625632 157.183358 
z
" clip-path="url(#p4d773c514f)" style="fill: #2e9b8a; stroke: #2e9b8a; stroke-width: 1.5; stroke-linecap: round"/>
   </g>
   <g id="patch_3">
    <path d="M 91.360591 165.454594 
Q 86.849844 165.454594 84.016147 165.454594 
" clip-path="url(#p4d773c514f)" style="fill: none; stroke: #2e9b8a; stroke-width: 1.5; stroke-linecap: round"/>
    <path d="M 88.416147 167.654594 
L 84.016147 165.454594 
L 88.416147 163.254594 
z
" clip-path="url(#p4d773c514f)" style="fill: #2e9b8a; stroke: #2e9b8a; stroke-width: 1.5; stroke-linecap: round"/>
   </g>
   <g id="patch_4">
    <path d="M 93.464809 236.225388 
Q 95.134448 200.355533 81.784479 168.834458 
" clip-path="url(#p4d773c514f)" style="fill: none; stroke: #2e9b8a; stroke-width: 1.5; stroke-linecap: round"/>
    <path d="M 81.474634 173.74404 
L 81.784479 168.834458 
L 85.526238 172.028084 
z
" clip-path="url(#p4d773c514f)" style="fill: #2e9b8a; stroke: #2e9b8a; stroke-width: 1.5; stroke-linecap: round"/>
   </g>
   <g id="patch_5">
    <path d="M 137.086311 163.691959 
Q 152.684713 134.356056 159.529548 103.559566 
" clip-path="url(#p4d773c514f)" style="fill: none; stroke: #2e9b8a; stroke-width: 1.5; stroke-linecap: round"/>
    <path d="M 156.427304 107.37743 
L 159.529548 103.559566 
L 160.722493 108.33208 
z
" clip-path="url(#p4d773c514f)" style="fill: #2e9b8a; stroke: #2e9b8a; stroke-width: 1.5; stroke-linecap: round"/>
   </g>
   <g id="patch_6">
    <path d="M 137.633882 164.130035 
Q 148.774112 154.191448 157.813974 144.501285 
" clip-path="url(#p4d773c514f)" style="fill: none; stroke: #2e9b8a; stroke-width: 1.5; stroke-linecap: round"/>
    <path d="M 153.203859 146.217919 
L 157.813974 144.501285 
L 156.421212 149.219358 
z
" clip-path="url(#p4d773c514f)" style="fill: #2e9b8a; stroke: #2e9b8a; stroke-width: 1.5; stroke-linecap: round"/>
   </g>
   <g id="patch_7">
    <path d="M 137.781729 166.596289 
Q 148.549304 174.126526 157.464362 181.33127 
" clip-path="url(#p4d773c514f)" style="fill: none; stroke: #2e9b8a; stroke-width: 1.5; stroke-linecap: round"/>
    <path d="M 155.425014 176.854546 
L 157.464362 181.33127 
L 152.659374 180.276714 
z
" clip-path="url(#p4d773c514f)" style="fill: #2e9b8a; stroke: #2e9b8a; stroke-width: 1.5; stroke-linecap: round"/>
   </g>
   <g id="patch_8">
    <path d="M 137.118149 167.202609 
Q 151.956183 193.969142 159.382836 221.926648 
" clip-path="url(#p4d773c514f)" style="fill: none; stroke: #2e9b8a; stroke-width: 1.5; stroke-linecap: round"/>
    <path d="M 160.379453 217.109309 
L 159.382836 221.926648 
L 156.126935 218.238951 
z
" clip-path="url(#p4d773c514f)" style="fill: #2e9b8a; stroke: #2e9b8a; stroke-width: 1.5; stroke-linecap: round"/>
   </g>
   <g id="patch_9">
    <path d="M 89.779182 369.196594 
Q 101.728906 369.196594 112.00158 369.196594 
" clip-path="url(#p4d773c514f)" style="fill: none; stroke: #2e9b8a; stroke-width: 1.5; stroke-linecap: round"/>
    <path d="M 107.60158 366.996594 
L 112.00158 369.196594 
L 107.60158 371.396594 
z
" clip-path="url(#p4d773c514f)" style="fill: #2e9b8a; stroke: #2e9b8a; stroke-width: 1.5; stroke-linecap: round"/>
   </g>
   <g id="patch_10">
    <path d="M 177.20168 369.196594 
Q 190.079548 369.196594 201.280365 369.196594 
" clip-path="url(#p4d773c514f)" style="fill: none; stroke: #2e9b8a; stroke-width: 1.5; stroke-linecap: round"/>
    <path d="M 196.880365 366.996594 
L 201.280365 369.196594 
L 196.880365 371.396594 
z
" clip-path="url(#p4d773c514f)" style="fill: #2e9b8a; stroke: #2e9b8a; stroke-width: 1.5; stroke-linecap: round"/>
   </g>
   <g id="patch_11">
    <path d="M 303.682588 369.196594 
Q 312.841792 369.196594 320.323946 369.196594 
" clip-path="url(#p4d773c514f)" style="fill: none; stroke: #2e9b8a; stroke-width: 1.5; stroke-linecap: round"/>
    <path d="M 315.923946 366.996594 
L 320.323946 369.196594 
L 315.923946 371.396594 
z
" clip-path="url(#p4d773c514f)" style="fill: #2e9b8a; stroke: #2e9b8a; stroke-width: 1.5; stroke-linecap: round"/>
   </g>
   <g id="patch_12">
    <path d="M 489.682588 369.196594 
Q 498.841792 369.196594 506.323946 369.196594 
" clip-path="url(#p4d773c514f)" style="fill: none; stroke: #2e9b8a; stroke-width: 1.5; stroke-linecap: round"/>
    <path d="M 501.923946 366.996594 
L 506.323946 369.196594 
L 501.923946 371.396594 
z
" clip-path="url(#p4d773c514f)" style="fill: #2e9b8a; stroke: #2e9b8a; stroke-width: 1.5; stroke-linecap: round"/>
   </g>
   <g id="patch_13">
    <path d="M 608.722588 369.196594 
Q 625.322344 369.196594 640.245049 369.196594 
" clip-path="url(#p4d773c514f)" style="fill: none; stroke: #2e9b8a; stroke-width: 1.5; stroke-linecap: round"/>
    <path d="M 635.845049 366.996594 
L 640.245049 369.196594 
L 635.845049 371.396594 
z
" clip-path="url(#p4d773c514f)" style="fill: #2e9b8a; stroke: #2e9b8a; stroke-width: 1.5; stroke-linecap: round"/>
   </g>
   <g id="patch_14">
    <path d="M 705.017548 367.965998 
Q 722.724344 353.717841 725.333986 332.829904 
" clip-path="url(#p4d773c514f)" style="fill: none; stroke: #2e9b8a; stroke-width: 1.5; stroke-linecap: round"/>
    <path d="M 722.605482 336.923224 
L 725.333986 332.829904 
L 726.97154 337.468699 
z
" clip-path="url(#p4d773c514f)" style="fill: #2e9b8a; stroke: #2e9b8a; stroke-width: 1.5; stroke-linecap: round"/>
   </g>
   <g id="patch_15">
    <path d="M 705.442588 369.196594 
Q 714.601792 369.196594 722.083946 369.196594 
" clip-path="url(#p4d773c514f)" style="fill: none; stroke: #2e9b8a; stroke-width: 1.5; stroke-linecap: round"/>
    <path d="M 717.683946 366.996594 
L 722.083946 369.196594 
L 717.683946 371.396594 
z
" clip-path="url(#p4d773c514f)" style="fill: #2e9b8a; stroke: #2e9b8a; stroke-width: 1.5; stroke-linecap: round"/>
   </g>
   <g id="patch_16">
    <path d="M 705.017548 370.42719 
Q 722.724344 384.675347 725.333986 405.563283 
" clip-path="url(#p4d773c514f)" style="fill: none; stroke: #2e9b8a; stroke-width: 1.5; stroke-linecap: round"/>
    <path d="M 726.97154 400.924488 
L 725.333986 405.563283 
L 722.605482 401.469963 
z
" clip-path="url(#p4d773c514f)" style="fill: #2e9b8a; stroke: #2e9b8a; stroke-width: 1.5; stroke-linecap: round"/>
   </g>
   <g id="patch_17">
    <path d="M 160.400105 262.051318 
Q 161.623165 300.255428 140.041074 330.025838 
" clip-path="url(#p4d773c514f)" style="fill: none; stroke: #9aa4b0; stroke-width: 1.3; stroke-linecap: round"/>
    <path d="M 144.404801 327.754741 
L 140.041074 330.025838 
L 140.842433 325.172198 
z
" clip-path="url(#p4d773c514f)" style="fill: #9aa4b0; stroke: #9aa4b0; stroke-width: 1.3; stroke-linecap: round"/>
   </g>
   <g id="patch_18">
    <path d="M 567.551402 259.679059 
Q 349.052916 218.956925 163.225486 338.222172 
" clip-path="url(#p4d773c514f)" style="fill: none; stroke: #9aa4b0; stroke-width: 1.3; stroke-linecap: round"/>
    <path d="M 168.11673 337.697069 
L 163.225486 338.222172 
L 165.74015 333.994115 
z
" clip-path="url(#p4d773c514f)" style="fill: #9aa4b0; stroke: #9aa4b0; stroke-width: 1.3; stroke-linecap: round"/>
   </g>
   <g id="patch_19">
    <path d="M 30.12 117.065869 
L 56.16 117.065869 
Q 60.624 117.065869 60.624 112.699969 
L 60.624 87.232219 
Q 60.624 82.866319 56.16 82.866319 
L 30.12 82.866319 
Q 25.656 82.866319 25.656 87.232219 
L 25.656 112.699969 
Q 25.656 117.065869 30.12 117.065869 
z
" clip-path="url(#p4d773c514f)" style="fill: #fde7c4; stroke: #e0a93f; stroke-width: 1.4; stroke-linejoin: miter"/>
   </g>
   <g id="text_1">
    <text style="font-weight: 700; font-size: 5.6px; font-family: 'DejaVu Sans', 'Arial', 'Helvetica', sans-serif; text-anchor: middle; fill: #e0a93f" x="43.14" y="77.862719" transform="rotate(-0 43.14 77.862719)">★ 4 nm</text>
   </g>
   <g id="patch_20">
    <path d="M 30.12 188.011744 
L 67.32 188.011744 
Q 71.784 188.011744 71.784 183.645844 
L 71.784 147.263344 
Q 71.784 142.897444 67.32 142.897444 
L 30.12 142.897444 
Q 25.656 142.897444 25.656 147.263344 
L 25.656 183.645844 
Q 25.656 188.011744 30.12 188.011744 
z
" clip-path="url(#p4d773c514f)" style="fill: #dce8f7; stroke: #6f9fd8; stroke-width: 1.4; stroke-linejoin: miter"/>
   </g>
   <g id="patch_21">
    <path d="M 30.12 269.872369 
L 85.92 269.872369 
Q 90.384 269.872369 90.384 265.506469 
L 90.384 210.932719 
Q 90.384 206.566819 85.92 206.566819 
L 30.12 206.566819 
Q 25.656 206.566819 25.656 210.932719 
L 25.656 265.506469 
Q 25.656 269.872369 30.12 269.872369 
z
" clip-path="url(#p4d773c514f)" style="fill: #dce8f7; stroke: #6f9fd8; stroke-width: 1.4; stroke-linejoin: miter"/>
   </g>
   <g id="patch_22">
    <path d="M 164.784 117.793519 
L 319.536 117.793519 
Q 324.744 117.793519 324.744 112.699969 
L 324.744 87.232219 
Q 324.744 82.138669 319.536 82.138669 
L 164.784 82.138669 
Q 159.576 82.138669 159.576 87.232219 
L 159.576 112.699969 
Q 159.576 117.793519 164.784 117.793519 
z
" clip-path="url(#p4d773c514f)" style="fill: #dce8f7; stroke: #6f9fd8; stroke-width: 1.3; stroke-linejoin: miter"/>
   </g>
   <g id="text_2">
    <text style="font-size: 5.2px; font-family: 'DejaVu Sans', 'Arial', 'Helvetica', sans-serif; text-anchor: start; fill: #7a8794" x="329.58" y="101.400969" transform="rotate(-0 329.58 101.400969)">SNEMI</text>
   </g>
   <g id="patch_23">
    <path d="M 164.784 159.633394 
L 319.536 159.633394 
Q 324.744 159.633394 324.744 154.539844 
L 324.744 129.072094 
Q 324.744 123.978544 319.536 123.978544 
L 164.784 123.978544 
Q 159.576 123.978544 159.576 129.072094 
L 159.576 154.539844 
Q 159.576 159.633394 164.784 159.633394 
z
" clip-path="url(#p4d773c514f)" style="fill: #dce8f7; stroke: #6f9fd8; stroke-width: 1.3; stroke-linejoin: miter"/>
   </g>
   <g id="text_3">
    <text style="font-size: 5.2px; font-family: 'DejaVu Sans', 'Arial', 'Helvetica', sans-serif; text-anchor: start; fill: #7a8794" x="329.58" y="143.240844" transform="rotate(-0 329.58 143.240844)">MitoEM</text>
   </g>
   <g id="patch_24">
    <path d="M 164.784 201.473269 
L 319.536 201.473269 
Q 324.744 201.473269 324.744 196.379719 
L 324.744 170.911969 
Q 324.744 165.818419 319.536 165.818419 
L 164.784 165.818419 
Q 159.576 165.818419 159.576 170.911969 
L 159.576 196.379719 
Q 159.576 201.473269 164.784 201.473269 
z
" clip-path="url(#p4d773c514f)" style="fill: #dce8f7; stroke: #6f9fd8; stroke-width: 1.3; stroke-linejoin: miter"/>
   </g>
   <g id="text_4">
    <text style="font-size: 5.2px; font-family: 'DejaVu Sans', 'Arial', 'Helvetica', sans-serif; text-anchor: start; fill: #7a8794" x="329.58" y="185.080719" transform="rotate(-0 329.58 185.080719)">CREMI</text>
   </g>
   <g id="patch_25">
    <path d="M 164.784 243.313144 
L 319.536 243.313144 
Q 324.744 243.313144 324.744 238.219594 
L 324.744 212.751844 
Q 324.744 207.658294 319.536 207.658294 
L 164.784 207.658294 
Q 159.576 207.658294 159.576 212.751844 
L 159.576 238.219594 
Q 159.576 243.313144 164.784 243.313144 
z
" clip-path="url(#p4d773c514f)" style="fill: #dce8f7; stroke: #6f9fd8; stroke-width: 1.3; stroke-linejoin: miter"/>
   </g>
   <g id="text_5">
    <text style="font-size: 5.2px; font-family: 'DejaVu Sans', 'Arial', 'Helvetica', sans-serif; text-anchor: start; fill: #7a8794" x="329.58" y="226.920594" transform="rotate(-0 329.58 226.920594)">MICrONS</text>
   </g>
   <g id="patch_26">
    <path d="M 108.24 192.741469 
C 115.639166 192.741469 122.736278 189.866351 127.968279 184.749328 
C 133.20028 179.632305 136.14 172.691158 136.14 165.454594 
C 136.14 158.21803 133.20028 151.276883 127.968279 146.159859 
C 122.736278 141.042836 115.639166 138.167719 108.24 138.167719 
C 100.840834 138.167719 93.743722 141.042836 88.511721 146.159859 
C 83.27972 151.276883 80.34 158.21803 80.34 165.454594 
C 80.34 172.691158 83.27972 179.632305 88.511721 184.749328 
C 93.743722 189.866351 100.840834 192.741469 108.24 192.741469 
z
" clip-path="url(#p4d773c514f)" style="fill: #cfeae6; stroke: #2e9b8a; stroke-width: 1.5; stroke-linejoin: miter"/>
   </g>
   <g id="patch_27">
    <path d="M 439.32 117.065869 
L 465.36 117.065869 
Q 469.824 117.065869 469.824 112.699969 
L 469.824 87.232219 
Q 469.824 82.866319 465.36 82.866319 
L 439.32 82.866319 
Q 434.856 82.866319 434.856 87.232219 
L 434.856 112.699969 
Q 434.856 117.065869 439.32 117.065869 
z
" clip-path="url(#p4d773c514f)" style="fill: #fde7c4; stroke: #e0a93f; stroke-width: 1.4; stroke-linejoin: miter"/>
   </g>
   <g id="text_6">
    <text style="font-weight: 700; font-size: 5.6px; font-family: 'DejaVu Sans', 'Arial', 'Helvetica', sans-serif; text-anchor: middle; fill: #e0a93f" x="452.34" y="77.862719" transform="rotate(-0 452.34 77.862719)">★ 4 nm</text>
   </g>
   <g id="patch_28">
    <path d="M 439.32 188.011744 
L 476.52 188.011744 
Q 480.984 188.011744 480.984 183.645844 
L 480.984 147.263344 
Q 480.984 142.897444 476.52 142.897444 
L 439.32 142.897444 
Q 434.856 142.897444 434.856 147.263344 
L 434.856 183.645844 
Q 434.856 188.011744 439.32 188.011744 
z
" clip-path="url(#p4d773c514f)" style="fill: #dce8f7; stroke: #6f9fd8; stroke-width: 1.4; stroke-linejoin: miter"/>
   </g>
   <g id="patch_29">
    <path d="M 439.32 269.872369 
L 495.12 269.872369 
Q 499.584 269.872369 499.584 265.506469 
L 499.584 210.932719 
Q 499.584 206.566819 495.12 206.566819 
L 439.32 206.566819 
Q 434.856 206.566819 434.856 210.932719 
L 434.856 265.506469 
Q 434.856 269.872369 439.32 269.872369 
z
" clip-path="url(#p4d773c514f)" style="fill: #dce8f7; stroke: #6f9fd8; stroke-width: 1.4; stroke-linejoin: miter"/>
   </g>
   <g id="patch_30">
    <path d="M 573.984 117.793519 
L 728.736 117.793519 
Q 733.944 117.793519 733.944 112.699969 
L 733.944 87.232219 
Q 733.944 82.138669 728.736 82.138669 
L 573.984 82.138669 
Q 568.776 82.138669 568.776 87.232219 
L 568.776 112.699969 
Q 568.776 117.793519 573.984 117.793519 
z
" clip-path="url(#p4d773c514f)" style="fill: #dce8f7; stroke: #6f9fd8; stroke-width: 1.3; stroke-linejoin: miter"/>
   </g>
   <g id="text_7">
    <text style="font-size: 5.2px; font-family: 'DejaVu Sans', 'Arial', 'Helvetica', sans-serif; text-anchor: start; fill: #7a8794" x="738.78" y="101.400969" transform="rotate(-0 738.78 101.400969)">SNEMI</text>
   </g>
   <g id="patch_31">
    <path d="M 573.984 159.633394 
L 728.736 159.633394 
Q 733.944 159.633394 733.944 154.539844 
L 733.944 129.072094 
Q 733.944 123.978544 728.736 123.978544 
L 573.984 123.978544 
Q 568.776 123.978544 568.776 129.072094 
L 568.776 154.539844 
Q 568.776 159.633394 573.984 159.633394 
z
" clip-path="url(#p4d773c514f)" style="fill: #dce8f7; stroke: #6f9fd8; stroke-width: 1.3; stroke-linejoin: miter"/>
   </g>
   <g id="text_8">
    <text style="font-size: 5.2px; font-family: 'DejaVu Sans', 'Arial', 'Helvetica', sans-serif; text-anchor: start; fill: #7a8794" x="738.78" y="143.240844" transform="rotate(-0 738.78 143.240844)">MitoEM</text>
   </g>
   <g id="patch_32">
    <path d="M 573.984 201.473269 
L 728.736 201.473269 
Q 733.944 201.473269 733.944 196.379719 
L 733.944 170.911969 
Q 733.944 165.818419 728.736 165.818419 
L 573.984 165.818419 
Q 568.776 165.818419 568.776 170.911969 
L 568.776 196.379719 
Q 568.776 201.473269 573.984 201.473269 
z
" clip-path="url(#p4d773c514f)" style="fill: #dce8f7; stroke: #6f9fd8; stroke-width: 1.3; stroke-linejoin: miter"/>
   </g>
   <g id="text_9">
    <text style="font-size: 5.2px; font-family: 'DejaVu Sans', 'Arial', 'Helvetica', sans-serif; text-anchor: start; fill: #7a8794" x="738.78" y="185.080719" transform="rotate(-0 738.78 185.080719)">CREMI</text>
   </g>
   <g id="patch_33">
    <path d="M 573.984 243.313144 
L 728.736 243.313144 
Q 733.944 243.313144 733.944 238.219594 
L 733.944 212.751844 
Q 733.944 207.658294 728.736 207.658294 
L 573.984 207.658294 
Q 568.776 207.658294 568.776 212.751844 
L 568.776 238.219594 
Q 568.776 243.313144 573.984 243.313144 
z
" clip-path="url(#p4d773c514f)" style="fill: #dce8f7; stroke: #6f9fd8; stroke-width: 1.3; stroke-linejoin: miter"/>
   </g>
   <g id="text_10">
    <text style="font-size: 5.2px; font-family: 'DejaVu Sans', 'Arial', 'Helvetica', sans-serif; text-anchor: start; fill: #7a8794" x="738.78" y="226.920594" transform="rotate(-0 738.78 226.920594)">MICrONS</text>
   </g>
   <g id="text_11">
    <text style="font-style: italic; font-size: 6px; font-family: 'DejaVu Sans', 'Arial', 'Helvetica', sans-serif; fill: #9aa4b0" transform="translate(508.069219 163.750875)">native</text>
    <text style="font-style: italic; font-size: 6px; font-family: 'DejaVu Sans', 'Arial', 'Helvetica', sans-serif; fill: #9aa4b0" transform="translate(497.931562 170.469562)">(no degrade)</text>
   </g>
   <g id="text_12">
    <text style="font-weight: 700; font-size: 9.5px; font-family: 'DejaVu Sans', 'Arial', 'Helvetica', sans-serif; text-anchor: middle; fill: #2e7d55" x="160.32" y="44.338391" transform="rotate(-0 160.32 44.338391)">SSL · synthetic degrade pairs (label-free)</text>
   </g>
   <g id="text_13">
    <text style="font-weight: 700; font-size: 9.5px; font-family: 'DejaVu Sans', 'Arial', 'Helvetica', sans-serif; text-anchor: middle; fill: #2c5c9e" x="576.96" y="44.3755" transform="rotate(-0 576.96 44.3755)">SFT · native labeled volumes</text>
   </g>
   <g id="text_14">
    <text style="font-style: italic; font-size: 6.6px; font-family: 'DejaVu Sans', 'Arial', 'Helvetica', sans-serif; text-anchor: middle; fill: #9aa4b0" x="390.96" y="69.043031" transform="rotate(-0 390.96 69.043031)">isotropic 4³/8³/16³  vs  anisotropic  y×x×z (nm)</text>
   </g>
   <g id="patch_34">
    <path d="M 58.02 386.296369 
L 84.06 386.296369 
Q 88.524 386.296369 88.524 381.930469 
L 88.524 356.462719 
Q 88.524 352.096819 84.06 352.096819 
L 58.02 352.096819 
Q 53.556 352.096819 53.556 356.462719 
L 53.556 381.930469 
Q 53.556 386.296369 58.02 386.296369 
z
" clip-path="url(#p4d773c514f)" style="fill: #f6d6d9; stroke: #d06b76; stroke-width: 1.4; stroke-linejoin: miter"/>
   </g>
   <g id="patch_35">
    <path d="M 145.44 398.302594 
C 153.332444 398.302594 160.902697 395.235802 166.483498 389.777644 
C 172.064299 384.319485 175.2 376.915595 175.2 369.196594 
C 175.2 361.477592 172.064299 354.073702 166.483498 348.615544 
C 160.902697 343.157386 153.332444 340.090594 145.44 340.090594 
C 137.547556 340.090594 129.977303 343.157386 124.396502 348.615544 
C 118.815701 354.073702 115.68 361.477592 115.68 369.196594 
C 115.68 376.915595 118.815701 384.319485 124.396502 389.777644 
C 129.977303 395.235802 137.547556 398.302594 145.44 398.302594 
z
" clip-path="url(#p4d773c514f)" style="fill: #f6d6d9; stroke: #d06b76; stroke-width: 1.5; stroke-linejoin: miter"/>
   </g>
   <g id="patch_36">
    <path d="M 204.96 423.770344 
L 204.96 314.622844 
L 301.68 336.452344 
L 301.68 401.940844 
z
" clip-path="url(#p4d773c514f)" style="fill: #fde6c6; stroke: #e0982f; stroke-width: 1.6; stroke-linejoin: miter"/>
   </g>
   <g id="patch_37">
    <path d="M 332.184 421.223569 
L 479.496 421.223569 
Q 488.796 421.223569 488.796 412.127944 
L 488.796 326.265244 
Q 488.796 317.169619 479.496 317.169619 
L 332.184 317.169619 
Q 322.884 317.169619 322.884 326.265244 
L 322.884 412.127944 
Q 322.884 421.223569 332.184 421.223569 
z
" clip-path="url(#p4d773c514f)" style="fill: #d8ebca; stroke: #6fae53; stroke-width: 1.8; stroke-linejoin: miter"/>
   </g>
   <g id="patch_38">
    <path d="M 510 401.940844 
L 510 336.452344 
L 606.72 314.622844 
L 606.72 423.770344 
z
" clip-path="url(#p4d773c514f)" style="fill: #cfeae6; stroke: #2e9b8a; stroke-width: 1.6; stroke-linejoin: miter"/>
   </g>
   <g id="patch_39">
    <path d="M 673.68 398.302594 
C 681.572444 398.302594 689.142697 395.235802 694.723498 389.777644 
C 700.304299 384.319485 703.44 376.915595 703.44 369.196594 
C 703.44 361.477592 700.304299 354.073702 694.723498 348.615544 
C 689.142697 343.157386 681.572444 340.090594 673.68 340.090594 
C 665.787556 340.090594 658.217303 343.157386 652.636502 348.615544 
C 647.055701 354.073702 643.92 361.477592 643.92 369.196594 
C 643.92 376.915595 647.055701 384.319485 652.636502 389.777644 
C 658.217303 395.235802 665.787556 398.302594 673.68 398.302594 
z
" clip-path="url(#p4d773c514f)" style="fill: #cfe6f3; stroke: #3a8ec0; stroke-width: 1.5; stroke-linejoin: miter"/>
   </g>
   <g id="patch_40">
    <path d="M 729.48 344.456494 
L 751.8 344.456494 
Q 756.264 344.456494 756.264 340.090594 
L 756.264 318.261094 
Q 756.264 313.895194 751.8 313.895194 
L 729.48 313.895194 
Q 725.016 313.895194 725.016 318.261094 
L 725.016 340.090594 
Q 725.016 344.456494 729.48 344.456494 
z
" clip-path="url(#p4d773c514f)" style="fill: #f6d6d9; stroke: #d06b76; stroke-width: 1.4; stroke-linejoin: miter"/>
   </g>
   <g id="text_15">
    <text style="font-size: 6px; font-family: 'DejaVu Sans', 'Arial', 'Helvetica', sans-serif; text-anchor: start; fill: #54606e" x="764.82" y="330.831469" transform="rotate(-0 764.82 330.831469)">aff</text>
   </g>
   <g id="patch_41">
    <path d="M 729.48 384.477244 
L 751.8 384.477244 
Q 756.264 384.477244 756.264 380.111344 
L 756.264 358.281844 
Q 756.264 353.915944 751.8 353.915944 
L 729.48 353.915944 
Q 725.016 353.915944 725.016 358.281844 
L 725.016 380.111344 
Q 725.016 384.477244 729.48 384.477244 
z
" clip-path="url(#p4d773c514f)" style="fill: #e2d7f3; stroke: #7b5bb6; stroke-width: 1.4; stroke-linejoin: miter"/>
   </g>
   <g id="text_16">
    <text style="font-size: 6px; font-family: 'DejaVu Sans', 'Arial', 'Helvetica', sans-serif; text-anchor: start; fill: #54606e" x="764.82" y="370.852219" transform="rotate(-0 764.82 370.852219)">sem</text>
   </g>
   <g id="patch_42">
    <path d="M 729.48 424.497994 
L 751.8 424.497994 
Q 756.264 424.497994 756.264 420.132094 
L 756.264 398.302594 
Q 756.264 393.936694 751.8 393.936694 
L 729.48 393.936694 
Q 725.016 393.936694 725.016 398.302594 
L 725.016 420.132094 
Q 725.016 424.497994 729.48 424.497994 
z
" clip-path="url(#p4d773c514f)" style="fill: #ffffff; stroke: #9aa4b0; stroke-width: 1.4; stroke-linejoin: miter"/>
   </g>
   <g id="text_17">
    <text style="font-size: 6px; font-family: 'DejaVu Sans', 'Arial', 'Helvetica', sans-serif; text-anchor: start; fill: #54606e" x="764.82" y="410.872969" transform="rotate(-0 764.82 410.872969)">raw</text>
   </g>
   <g id="text_18">
    <text style="font-style: italic; font-size: 6.4px; font-family: 'DejaVu Sans', 'Arial', 'Helvetica', sans-serif; text-anchor: middle; fill: #7a8794" x="249.6" y="301.835844" transform="rotate(-0 249.6 301.835844)">resample → 4 nm fine grid</text>
   </g>
   <g id="text_19">
    <text style="font-style: italic; font-size: 6.4px; font-family: 'DejaVu Sans', 'Arial', 'Helvetica', sans-serif; text-anchor: middle; fill: #7a8794" x="569.52" y="429.174594" transform="rotate(-0 569.52 429.174594)">predict at 4 nm · pool to native res. for loss</text>
   </g>
   <g id="text_20">
    <text style="font-weight: 700; font-size: 13.5px; font-family: 'DejaVu Sans', 'Arial', 'Helvetica', sans-serif; text-anchor: middle; fill: #1b2430" x="390.96" y="21.777891" transform="rotate(-0 390.96 21.777891)">Cosmos3-Edge (4B) for Connectomics Segmentation</text>
   </g>
   <g id="text_21">
    <text style="font-size: 8.5px; font-family: 'DejaVu Sans', 'Arial', 'Helvetica', sans-serif; text-anchor: middle; fill: #1b2430" x="43.14" y="102.311562" transform="rotate(-0 43.14 102.311562)">4³</text>
   </g>
   <g id="text_22">
    <text style="font-size: 8.5px; font-family: 'DejaVu Sans', 'Arial', 'Helvetica', sans-serif; text-anchor: middle; fill: #1b2430" x="48.72" y="167.800062" transform="rotate(-0 48.72 167.800062)">8³</text>
   </g>
   <g id="text_23">
    <text style="font-size: 9px; font-family: 'DejaVu Sans', 'Arial', 'Helvetica', sans-serif; text-anchor: middle; fill: #1b2430" x="58.02" y="240.703031" transform="rotate(-0 58.02 240.703031)">16³</text>
   </g>
   <g id="text_24">
    <text style="font-size: 8px; font-family: 'DejaVu Sans', 'Arial', 'Helvetica', sans-serif; text-anchor: middle; fill: #1b2430" x="242.16" y="102.173594" transform="rotate(-0 242.16 102.173594)">6×6×30</text>
   </g>
   <g id="text_25">
    <text style="font-size: 8px; font-family: 'DejaVu Sans', 'Arial', 'Helvetica', sans-serif; text-anchor: middle; fill: #1b2430" x="242.16" y="144.013469" transform="rotate(-0 242.16 144.013469)">8×8×30</text>
   </g>
   <g id="text_26">
    <text style="font-size: 8px; font-family: 'DejaVu Sans', 'Arial', 'Helvetica', sans-serif; text-anchor: middle; fill: #1b2430" x="242.16" y="185.853344" transform="rotate(-0 242.16 185.853344)">4×4×40</text>
   </g>
   <g id="text_27">
    <text style="font-size: 8px; font-family: 'DejaVu Sans', 'Arial', 'Helvetica', sans-serif; text-anchor: middle; fill: #1b2430" x="242.16" y="227.693219" transform="rotate(-0 242.16 227.693219)">8×8×40</text>
   </g>
   <g id="text_28">
    <text style="font-size: 6px; font-family: 'DejaVu Sans', 'Arial', 'Helvetica', sans-serif; text-anchor: middle; fill: #1b2430" x="108.24" y="167.110219" transform="rotate(-0 108.24 167.110219)">Degrade</text>
   </g>
   <g id="text_29">
    <text style="font-size: 8.5px; font-family: 'DejaVu Sans', 'Arial', 'Helvetica', sans-serif; text-anchor: middle; fill: #1b2430" x="452.34" y="102.311562" transform="rotate(-0 452.34 102.311562)">4³</text>
   </g>
   <g id="text_30">
    <text style="font-size: 8.5px; font-family: 'DejaVu Sans', 'Arial', 'Helvetica', sans-serif; text-anchor: middle; fill: #1b2430" x="457.92" y="167.800062" transform="rotate(-0 457.92 167.800062)">8³</text>
   </g>
   <g id="text_31">
    <text style="font-size: 9px; font-family: 'DejaVu Sans', 'Arial', 'Helvetica', sans-serif; text-anchor: middle; fill: #1b2430" x="467.22" y="240.703031" transform="rotate(-0 467.22 240.703031)">16³</text>
   </g>
   <g id="text_32">
    <text style="font-size: 8px; font-family: 'DejaVu Sans', 'Arial', 'Helvetica', sans-serif; text-anchor: middle; fill: #1b2430" x="651.36" y="102.173594" transform="rotate(-0 651.36 102.173594)">6×6×30</text>
   </g>
   <g id="text_33">
    <text style="font-size: 8px; font-family: 'DejaVu Sans', 'Arial', 'Helvetica', sans-serif; text-anchor: middle; fill: #1b2430" x="651.36" y="144.013469" transform="rotate(-0 651.36 144.013469)">8×8×30</text>
   </g>
   <g id="text_34">
    <text style="font-size: 8px; font-family: 'DejaVu Sans', 'Arial', 'Helvetica', sans-serif; text-anchor: middle; fill: #1b2430" x="651.36" y="185.853344" transform="rotate(-0 651.36 185.853344)">4×4×40</text>
   </g>
   <g id="text_35">
    <text style="font-size: 8px; font-family: 'DejaVu Sans', 'Arial', 'Helvetica', sans-serif; text-anchor: middle; fill: #1b2430" x="651.36" y="227.693219" transform="rotate(-0 651.36 227.693219)">8×8×40</text>
   </g>
   <g id="text_36">
    <text style="font-size: 8px; font-family: 'DejaVu Sans', 'Arial', 'Helvetica', sans-serif; text-anchor: middle; fill: #1b2430" x="71.04" y="371.404094" transform="rotate(-0 71.04 371.404094)">4³</text>
   </g>
   <g id="text_37">
    <text style="font-size: 5.8px; font-family: 'DejaVu Sans', 'Arial', 'Helvetica', sans-serif; text-anchor: middle; fill: #1b2430" x="145.44" y="370.797031" transform="rotate(-0 145.44 370.797031)">Resample</text>
   </g>
   <g id="text_38">
    <text style="font-size: 7.6px; font-family: 'DejaVu Sans', 'Arial', 'Helvetica', sans-serif; fill: #1b2430" transform="translate(239.024875 367.03855)">Wan2.2</text>
    <text style="font-size: 7.6px; font-family: 'DejaVu Sans', 'Arial', 'Helvetica', sans-serif; fill: #1b2430" transform="translate(236.711031 375.548887)">VAE enc.</text>
   </g>
   <g id="text_39">
    <text style="font-weight: 700; font-size: 9.5px; font-family: 'DejaVu Sans', 'Arial', 'Helvetica', sans-serif; text-anchor: middle; fill: #6fae53" x="405.84" y="359.047016" transform="rotate(-0 405.84 359.047016)">Cosmos3-Edge</text>
   </g>
   <g id="text_40">
    <text style="font-size: 6.8px; font-family: 'DejaVu Sans', 'Arial', 'Helvetica', sans-serif; text-anchor: middle; fill: #1b2430" x="405.84" y="387.445094" transform="rotate(-0 405.84 387.445094)">4B · 28L / 2048d</text>
   </g>
   <g id="text_41">
    <text style="font-size: 7.6px; font-family: 'DejaVu Sans', 'Arial', 'Helvetica', sans-serif; fill: #1b2430" transform="translate(542.882125 367.03855)">decoder</text>
    <text style="font-size: 7.6px; font-family: 'DejaVu Sans', 'Arial', 'Helvetica', sans-serif; fill: #1b2430" transform="translate(544.4805 375.548887)">+ head</text>
   </g>
   <g id="text_42">
    <text style="font-size: 5.8px; font-family: 'DejaVu Sans', 'Arial', 'Helvetica', sans-serif; text-anchor: middle; fill: #1b2430" x="673.68" y="370.797031" transform="rotate(-0 673.68 370.797031)">Resample</text>
   </g>
   <g id="text_43">
    <text style="font-size: 6.6px; font-family: 'DejaVu Sans', 'Arial', 'Helvetica', sans-serif; text-anchor: middle; fill: #1b2430" x="740.64" y="330.997031" transform="rotate(-0 740.64 330.997031)">4³</text>
   </g>
   <g id="text_44">
    <text style="font-size: 6.6px; font-family: 'DejaVu Sans', 'Arial', 'Helvetica', sans-serif; text-anchor: middle; fill: #1b2430" x="740.64" y="371.017781" transform="rotate(-0 740.64 371.017781)">4³</text>
   </g>
   <g id="text_45">
    <text style="font-size: 6.6px; font-family: 'DejaVu Sans', 'Arial', 'Helvetica', sans-serif; text-anchor: middle; fill: #1b2430" x="740.64" y="411.038531" transform="rotate(-0 740.64 411.038531)">4³</text>
   </g>
  </g>
 </g>
 <defs>
  <clipPath id="p4d773c514f">
   <rect x="11.52" y="12.648094" width="758.88" height="465.696"/>
  </clipPath>
 </defs>
</svg>
